# MagicaVoxel @ Ephtracy

# material
mtllib bar.mtl
usemtl palette

# normals
vn -1 0 0
vn 1 0 0
vn 0 0 1
vn 0 0 -1
vn 0 -1 0
vn 0 1 0

# texcoords
vt 0.0175781 0.5
vt 0.0488281 0.5
vt 0.439453 0.5
vt 0.466797 0.5
vt 0.822266 0.5
vt 0.857422 0.5
vt 0.939453 0.5
vt 0.970703 0.5
vt 0.994141 0.5

# verts
v -18.5 0 25.5
v -18.5 0 -25.5
v -18.5 20 25.5
v -18.5 20 -25.5
v -18.5 30 25.5
v -18.5 30 -25.5
v 12.5 1 -5.5
v 12.5 1 -10.5
v 12.5 2 -10.5
v 12.5 5 -5.5
v 12.5 5 -6.5
v 12.5 6 -5.5
v 12.5 6 -6.5
v 12.5 6 -10.5
v 17.5 1 24.5
v 17.5 1 19.5
v 17.5 1 14.5
v 17.5 1 9.5
v 17.5 1 4.5
v 17.5 1 -0.5
v 17.5 1 -5.5
v 17.5 5 -5.5
v 17.5 6 -5.5
v 17.5 7 -5.5
v 17.5 7 -10.5
v 17.5 7 -15.5
v 17.5 7 -25.5
v 17.5 14 -10.5
v 17.5 14 -15.5
v 17.5 20 24.5
v 17.5 20 -25.5
v 17.5 30 24.5
v 17.5 30 -25.5
v -17.5 1 24.5
v -17.5 1 19.5
v -17.5 1 14.5
v -17.5 1 9.5
v -17.5 1 4.5
v -17.5 1 -0.5
v -17.5 1 -5.5
v -17.5 2 -10.5
v -17.5 2 -15.5
v -17.5 5 -5.5
v -17.5 6 -5.5
v -17.5 6 -10.5
v -17.5 7 -5.5
v -17.5 7 -10.5
v -17.5 7 -15.5
v -17.5 7 -25.5
v -17.5 20 24.5
v -17.5 20 -25.5
v -17.5 30 24.5
v -17.5 30 -25.5
v 7.5 1 -5.5
v 7.5 1 -10.5
v 7.5 2 -10.5
v 7.5 5 -5.5
v 7.5 5 -6.5
v 7.5 6 -5.5
v 7.5 6 -6.5
v 7.5 6 -10.5
v 18.5 0 25.5
v 18.5 0 -25.5
v 18.5 2 -10.5
v 18.5 2 -15.5
v 18.5 14 -10.5
v 18.5 14 -15.5
v 18.5 20 25.5
v 18.5 20 -25.5
v 18.5 30 25.5
v 18.5 30 -25.5
v -18.5 0 25.5
v -18.5 20 25.5
v -18.5 30 25.5
v -7.5 1 25.5
v -7.5 15 25.5
v -6.5 2 25.5
v -6.5 14 25.5
v -4.5 10 25.5
v -4.5 11 25.5
v -3.5 9 25.5
v -3.5 10 25.5
v -3.5 11 25.5
v -3.5 12 25.5
v -3.5 13 25.5
v -2.5 8 25.5
v -2.5 9 25.5
v -2.5 10 25.5
v -2.5 11 25.5
v -2.5 12 25.5
v -2.5 13 25.5
v -1.5 8 25.5
v -1.5 9 25.5
v -1.5 11 25.5
v -1.5 12 25.5
v -0.5 2 25.5
v -0.5 14 25.5
v 0.5 2 25.5
v 0.5 14 25.5
v 3.5 11 25.5
v 3.5 12 25.5
v 4.5 10 25.5
v 4.5 11 25.5
v 4.5 12 25.5
v 4.5 13 25.5
v 5.5 10 25.5
v 5.5 11 25.5
v 5.5 12 25.5
v 5.5 13 25.5
v 6.5 2 25.5
v 6.5 14 25.5
v 7.5 1 25.5
v 7.5 15 25.5
v 18.5 0 25.5
v 18.5 20 25.5
v 18.5 30 25.5
v -17.5 1 -5.5
v -17.5 5 -5.5
v -17.5 6 -5.5
v -17.5 7 -5.5
v -12.5 1 -5.5
v -7.5 1 -5.5
v -2.5 1 -5.5
v 2.5 1 -5.5
v 7.5 1 -5.5
v 7.5 5 -5.5
v 7.5 6 -5.5
v 12.5 1 -5.5
v 12.5 5 -5.5
v 12.5 6 -5.5
v 17.5 1 -5.5
v 17.5 5 -5.5
v 17.5 6 -5.5
v 17.5 7 -5.5
v 7.5 1 -10.5
v 7.5 2 -10.5
v 12.5 1 -10.5
v 12.5 2 -10.5
v -17.5 2 -15.5
v -17.5 7 -15.5
v 17.5 2 -15.5
v 17.5 7 -15.5
v 17.5 14 -15.5
v 18.5 2 -15.5
v 18.5 14 -15.5
v -17.5 1 24.5
v -17.5 20 24.5
v -17.5 30 24.5
v -12.5 1 24.5
v -7.5 1 24.5
v -7.5 15 24.5
v -6.5 2 24.5
v -6.5 14 24.5
v -4.5 10 24.5
v -4.5 11 24.5
v -3.5 9 24.5
v -3.5 10 24.5
v -3.5 11 24.5
v -3.5 12 24.5
v -3.5 13 24.5
v -2.5 1 24.5
v -2.5 8 24.5
v -2.5 9 24.5
v -2.5 10 24.5
v -2.5 11 24.5
v -2.5 12 24.5
v -2.5 13 24.5
v -1.5 8 24.5
v -1.5 9 24.5
v -1.5 11 24.5
v -1.5 12 24.5
v -0.5 2 24.5
v -0.5 14 24.5
v 0.5 2 24.5
v 0.5 14 24.5
v 2.5 1 24.5
v 3.5 11 24.5
v 3.5 12 24.5
v 4.5 10 24.5
v 4.5 11 24.5
v 4.5 12 24.5
v 4.5 13 24.5
v 5.5 10 24.5
v 5.5 11 24.5
v 5.5 12 24.5
v 5.5 13 24.5
v 6.5 2 24.5
v 6.5 14 24.5
v 7.5 1 24.5
v 7.5 15 24.5
v 12.5 1 24.5
v 17.5 1 24.5
v 17.5 20 24.5
v 17.5 30 24.5
v -17.5 2 -10.5
v -17.5 6 -10.5
v -17.5 7 -10.5
v 7.5 2 -10.5
v 7.5 6 -10.5
v 12.5 2 -10.5
v 12.5 6 -10.5
v 17.5 2 -10.5
v 17.5 6 -10.5
v 17.5 7 -10.5
v 17.5 14 -10.5
v 18.5 2 -10.5
v 18.5 14 -10.5
v -18.5 0 -25.5
v -18.5 20 -25.5
v -18.5 30 -25.5
v -17.5 7 -25.5
v -17.5 20 -25.5
v -17.5 30 -25.5
v 17.5 7 -25.5
v 17.5 20 -25.5
v 17.5 30 -25.5
v 18.5 0 -25.5
v 18.5 20 -25.5
v 18.5 30 -25.5
v -18.5 0 25.5
v 18.5 0 25.5
v -17.5 0 24.5
v -12.5 0 24.5
v -7.5 0 24.5
v -2.5 0 24.5
v 2.5 0 24.5
v 7.5 0 24.5
v 12.5 0 24.5
v 17.5 0 24.5
v -17.5 0 19.5
v -12.5 0 19.5
v -7.5 0 19.5
v -2.5 0 19.5
v 2.5 0 19.5
v 7.5 0 19.5
v 12.5 0 19.5
v 17.5 0 19.5
v -17.5 0 14.5
v -12.5 0 14.5
v -7.5 0 14.5
v -2.5 0 14.5
v 2.5 0 14.5
v 7.5 0 14.5
v 12.5 0 14.5
v 17.5 0 14.5
v -17.5 0 9.5
v -12.5 0 9.5
v -7.5 0 9.5
v -2.5 0 9.5
v 2.5 0 9.5
v 7.5 0 9.5
v 12.5 0 9.5
v 17.5 0 9.5
v -17.5 0 4.5
v -12.5 0 4.5
v -7.5 0 4.5
v -2.5 0 4.5
v 2.5 0 4.5
v 7.5 0 4.5
v 12.5 0 4.5
v 17.5 0 4.5
v -17.5 0 -0.5
v -12.5 0 -0.5
v -7.5 0 -0.5
v -2.5 0 -0.5
v 2.5 0 -0.5
v 7.5 0 -0.5
v 12.5 0 -0.5
v 17.5 0 -0.5
v -17.5 0 -5.5
v -12.5 0 -5.5
v -11.5 0 -5.5
v -7.5 0 -5.5
v -2.5 0 -5.5
v 2.5 0 -5.5
v 7.5 0 -5.5
v 12.5 0 -5.5
v 17.5 0 -5.5
v -17.5 0 -10.5
v -12.5 0 -10.5
v -11.5 0 -10.5
v 12.5 0 -10.5
v -12.5 0 -15.5
v 12.5 0 -15.5
v -17.5 0 -20.5
v -12.5 0 -20.5
v 12.5 0 -20.5
v 17.5 0 -20.5
v -18.5 0 -25.5
v 18.5 0 -25.5
v 7.5 6 -5.5
v 12.5 6 -5.5
v 7.5 6 -6.5
v 12.5 6 -6.5
v 7.5 6 -10.5
v 12.5 6 -10.5
v 17.5 14 -10.5
v 18.5 14 -10.5
v 17.5 14 -15.5
v 18.5 14 -15.5
v -17.5 1 24.5
v -12.5 1 24.5
v -7.5 1 24.5
v -2.5 1 24.5
v 2.5 1 24.5
v 7.5 1 24.5
v 12.5 1 24.5
v 17.5 1 24.5
v -17.5 1 19.5
v -12.5 1 19.5
v -7.5 1 19.5
v -2.5 1 19.5
v 2.5 1 19.5
v 7.5 1 19.5
v 12.5 1 19.5
v 17.5 1 19.5
v -17.5 1 14.5
v -12.5 1 14.5
v -7.5 1 14.5
v -2.5 1 14.5
v 2.5 1 14.5
v 7.5 1 14.5
v 12.5 1 14.5
v 17.5 1 14.5
v -17.5 1 9.5
v -12.5 1 9.5
v -7.5 1 9.5
v -2.5 1 9.5
v 2.5 1 9.5
v 7.5 1 9.5
v 12.5 1 9.5
v 17.5 1 9.5
v -17.5 1 4.5
v -12.5 1 4.5
v -7.5 1 4.5
v -2.5 1 4.5
v 2.5 1 4.5
v 7.5 1 4.5
v 12.5 1 4.5
v 17.5 1 4.5
v -17.5 1 -0.5
v -12.5 1 -0.5
v -7.5 1 -0.5
v -2.5 1 -0.5
v 2.5 1 -0.5
v 7.5 1 -0.5
v 12.5 1 -0.5
v 17.5 1 -0.5
v -17.5 1 -5.5
v -12.5 1 -5.5
v -7.5 1 -5.5
v -2.5 1 -5.5
v 2.5 1 -5.5
v 7.5 1 -5.5
v 12.5 1 -5.5
v 17.5 1 -5.5
v 7.5 1 -10.5
v 12.5 1 -10.5
v -17.5 2 -10.5
v 7.5 2 -10.5
v 12.5 2 -10.5
v 17.5 2 -10.5
v 18.5 2 -10.5
v -17.5 2 -15.5
v 17.5 2 -15.5
v 18.5 2 -15.5
v -17.5 7 -5.5
v 17.5 7 -5.5
v -17.5 7 -10.5
v 17.5 7 -10.5
v -17.5 7 -15.5
v 17.5 7 -15.5
v -17.5 7 -25.5
v 17.5 7 -25.5
v -18.5 30 25.5
v 18.5 30 25.5
v -17.5 30 24.5
v 17.5 30 24.5
v -18.5 30 -25.5
v -17.5 30 -25.5
v 17.5 30 -25.5
v 18.5 30 -25.5

# faces
f 3/1/1 2/1/1 1/1/1
f 4/1/1 2/1/1 3/1/1
f 5/4/1 4/4/1 3/4/1
f 6/4/1 4/4/1 5/4/1
f 9/1/1 8/1/1 7/1/1
f 10/1/1 9/1/1 7/1/1
f 11/1/1 9/1/1 10/1/1
f 12/7/1 11/7/1 10/7/1
f 13/1/1 9/1/1 11/1/1
f 13/7/1 11/7/1 12/7/1
f 14/1/1 9/1/1 13/1/1
f 22/1/1 16/1/1 15/1/1
f 22/1/1 21/1/1 20/1/1
f 22/1/1 20/1/1 19/1/1
f 22/1/1 19/1/1 18/1/1
f 22/1/1 18/1/1 17/1/1
f 22/1/1 17/1/1 16/1/1
f 23/1/1 22/1/1 15/1/1
f 24/1/1 23/1/1 15/1/1
f 28/1/1 25/1/1 24/1/1
f 29/1/1 27/1/1 26/1/1
f 30/1/1 24/1/1 15/1/1
f 30/1/1 29/1/1 28/1/1
f 30/1/1 28/1/1 24/1/1
f 31/1/1 27/1/1 29/1/1
f 31/1/1 29/1/1 30/1/1
f 32/4/1 31/4/1 30/4/1
f 33/4/1 31/4/1 32/4/1
f 34/1/2 35/1/2 43/1/2
f 35/1/2 36/1/2 43/1/2
f 39/1/2 40/1/2 43/1/2
f 38/1/2 39/1/2 43/1/2
f 37/1/2 38/1/2 43/1/2
f 36/1/2 37/1/2 43/1/2
f 34/1/2 43/1/2 44/1/2
f 41/1/2 42/1/2 45/1/2
f 34/1/2 44/1/2 46/1/2
f 45/1/2 42/1/2 47/1/2
f 47/1/2 42/1/2 48/1/2
f 34/1/2 46/1/2 50/1/2
f 48/1/2 49/1/2 50/1/2
f 47/1/2 48/1/2 50/1/2
f 46/1/2 47/1/2 50/1/2
f 50/1/2 49/1/2 51/1/2
f 50/4/2 51/4/2 52/4/2
f 52/4/2 51/4/2 53/4/2
f 54/1/2 55/1/2 56/1/2
f 54/1/2 56/1/2 57/1/2
f 57/1/2 56/1/2 58/1/2
f 57/7/2 58/7/2 59/7/2
f 58/1/2 56/1/2 60/1/2
f 59/7/2 58/7/2 60/7/2
f 60/1/2 56/1/2 61/1/2
f 62/1/2 63/1/2 64/1/2
f 64/1/2 63/1/2 65/1/2
f 62/1/2 64/1/2 66/1/2
f 65/1/2 63/1/2 67/1/2
f 62/1/2 66/1/2 68/1/2
f 66/1/2 67/1/2 68/1/2
f 67/1/2 63/1/2 69/1/2
f 68/1/2 67/1/2 69/1/2
f 68/4/2 69/4/2 70/4/2
f 70/4/2 69/4/2 71/4/2
f 75/1/3 73/1/3 72/1/3
f 76/1/3 73/1/3 75/1/3
f 77/2/3 76/2/3 75/2/3
f 78/2/3 76/2/3 77/2/3
f 79/3/3 78/3/3 77/3/3
f 80/3/3 78/3/3 79/3/3
f 81/3/3 79/3/3 77/3/3
f 82/4/3 80/4/3 79/4/3
f 82/3/3 79/3/3 81/3/3
f 83/3/3 78/3/3 80/3/3
f 83/4/3 80/4/3 82/4/3
f 84/3/3 78/3/3 83/3/3
f 85/3/3 78/3/3 84/3/3
f 86/3/3 81/3/3 77/3/3
f 87/4/3 82/4/3 81/4/3
f 87/3/3 81/3/3 86/3/3
f 88/3/3 83/3/3 82/3/3
f 88/4/3 82/4/3 87/4/3
f 88/3/3 84/3/3 83/3/3
f 89/3/3 84/3/3 88/3/3
f 90/4/3 85/4/3 84/4/3
f 90/3/3 84/3/3 89/3/3
f 91/3/3 78/3/3 85/3/3
f 91/4/3 85/4/3 90/4/3
f 92/3/3 86/3/3 77/3/3
f 92/4/3 87/4/3 86/4/3
f 93/3/3 89/3/3 88/3/3
f 93/4/3 87/4/3 92/4/3
f 93/3/3 88/3/3 87/3/3
f 94/4/3 90/4/3 89/4/3
f 94/3/3 89/3/3 93/3/3
f 95/3/3 91/3/3 90/3/3
f 95/4/3 90/4/3 94/4/3
f 96/2/3 77/2/3 75/2/3
f 96/3/3 93/3/3 92/3/3
f 96/3/3 95/3/3 94/3/3
f 96/3/3 92/3/3 77/3/3
f 96/3/3 94/3/3 93/3/3
f 97/3/3 91/3/3 95/3/3
f 97/3/3 95/3/3 96/3/3
f 97/2/3 76/2/3 78/2/3
f 97/3/3 78/3/3 91/3/3
f 98/2/3 96/2/3 75/2/3
f 98/2/3 97/2/3 96/2/3
f 99/2/3 76/2/3 97/2/3
f 99/2/3 97/2/3 98/2/3
f 100/3/3 99/3/3 98/3/3
f 101/3/3 99/3/3 100/3/3
f 102/3/3 100/3/3 98/3/3
f 103/4/3 101/4/3 100/4/3
f 103/3/3 100/3/3 102/3/3
f 104/3/3 99/3/3 101/3/3
f 104/4/3 101/4/3 103/4/3
f 105/3/3 99/3/3 104/3/3
f 106/4/3 103/4/3 102/4/3
f 106/3/3 102/3/3 98/3/3
f 107/3/3 104/3/3 103/3/3
f 107/4/3 103/4/3 106/4/3
f 108/4/3 105/4/3 104/4/3
f 108/3/3 104/3/3 107/3/3
f 109/3/3 99/3/3 105/3/3
f 109/4/3 105/4/3 108/4/3
f 110/2/3 98/2/3 75/2/3
f 110/3/3 108/3/3 107/3/3
f 110/3/3 109/3/3 108/3/3
f 110/3/3 106/3/3 98/3/3
f 110/3/3 107/3/3 106/3/3
f 111/3/3 99/3/3 109/3/3
f 111/3/3 109/3/3 110/3/3
f 111/2/3 76/2/3 99/2/3
f 112/1/3 75/1/3 72/1/3
f 112/2/3 110/2/3 75/2/3
f 112/2/3 111/2/3 110/2/3
f 113/2/3 76/2/3 111/2/3
f 113/2/3 111/2/3 112/2/3
f 113/1/3 73/1/3 76/1/3
f 114/1/3 112/1/3 72/1/3
f 114/1/3 113/1/3 112/1/3
f 115/4/3 74/4/3 73/4/3
f 115/1/3 113/1/3 114/1/3
f 115/1/3 73/1/3 113/1/3
f 116/4/3 74/4/3 115/4/3
f 121/1/3 118/1/3 117/1/3
f 122/1/3 118/1/3 121/1/3
f 123/1/3 118/1/3 122/1/3
f 124/1/3 118/1/3 123/1/3
f 125/1/3 118/1/3 124/1/3
f 126/7/3 119/7/3 118/7/3
f 126/1/3 118/1/3 125/1/3
f 127/2/3 120/2/3 119/2/3
f 127/7/3 119/7/3 126/7/3
f 130/2/3 120/2/3 127/2/3
f 131/1/3 129/1/3 128/1/3
f 132/7/3 130/7/3 129/7/3
f 132/1/3 129/1/3 131/1/3
f 133/2/3 120/2/3 130/2/3
f 133/7/3 130/7/3 132/7/3
f 134/2/3 120/2/3 133/2/3
f 137/5/3 136/5/3 135/5/3
f 138/5/3 136/5/3 137/5/3
f 141/1/3 140/1/3 139/1/3
f 142/1/3 140/1/3 141/1/3
f 144/1/3 142/1/3 141/1/3
f 144/1/3 143/1/3 142/1/3
f 145/1/3 143/1/3 144/1/3
f 146/1/4 147/1/4 149/1/4
f 149/1/4 147/1/4 150/1/4
f 150/1/4 147/1/4 151/1/4
f 150/2/4 151/2/4 152/2/4
f 152/2/4 151/2/4 153/2/4
f 152/3/4 153/3/4 154/3/4
f 154/3/4 153/3/4 155/3/4
f 152/3/4 154/3/4 156/3/4
f 154/4/4 155/4/4 157/4/4
f 156/3/4 154/3/4 157/3/4
f 155/3/4 153/3/4 158/3/4
f 157/4/4 155/4/4 158/4/4
f 158/3/4 153/3/4 159/3/4
f 159/3/4 153/3/4 160/3/4
f 150/2/4 152/2/4 161/2/4
f 152/3/4 156/3/4 162/3/4
f 156/4/4 157/4/4 163/4/4
f 162/3/4 156/3/4 163/3/4
f 157/3/4 158/3/4 164/3/4
f 163/4/4 157/4/4 164/4/4
f 158/3/4 159/3/4 164/3/4
f 164/3/4 159/3/4 165/3/4
f 159/4/4 160/4/4 166/4/4
f 165/3/4 159/3/4 166/3/4
f 160/3/4 153/3/4 167/3/4
f 166/4/4 160/4/4 167/4/4
f 152/3/4 162/3/4 168/3/4
f 162/4/4 163/4/4 168/4/4
f 164/3/4 165/3/4 169/3/4
f 168/4/4 163/4/4 169/4/4
f 163/3/4 164/3/4 169/3/4
f 165/4/4 166/4/4 170/4/4
f 169/3/4 165/3/4 170/3/4
f 166/3/4 167/3/4 171/3/4
f 170/4/4 166/4/4 171/4/4
f 168/3/4 169/3/4 172/3/4
f 161/2/4 152/2/4 172/2/4
f 170/3/4 171/3/4 172/3/4
f 152/3/4 168/3/4 172/3/4
f 169/3/4 170/3/4 172/3/4
f 171/3/4 167/3/4 173/3/4
f 172/3/4 171/3/4 173/3/4
f 153/2/4 151/2/4 173/2/4
f 167/3/4 153/3/4 173/3/4
f 161/2/4 172/2/4 174/2/4
f 172/2/4 173/2/4 174/2/4
f 173/2/4 151/2/4 175/2/4
f 174/2/4 173/2/4 175/2/4
f 161/2/4 174/2/4 176/2/4
f 174/3/4 175/3/4 177/3/4
f 177/3/4 175/3/4 178/3/4
f 174/3/4 177/3/4 179/3/4
f 177/4/4 178/4/4 180/4/4
f 179/3/4 177/3/4 180/3/4
f 178/3/4 175/3/4 181/3/4
f 180/4/4 178/4/4 181/4/4
f 181/3/4 175/3/4 182/3/4
f 179/4/4 180/4/4 183/4/4
f 174/3/4 179/3/4 183/3/4
f 180/3/4 181/3/4 184/3/4
f 183/4/4 180/4/4 184/4/4
f 181/4/4 182/4/4 185/4/4
f 184/3/4 181/3/4 185/3/4
f 182/3/4 175/3/4 186/3/4
f 185/4/4 182/4/4 186/4/4
f 176/2/4 174/2/4 187/2/4
f 184/3/4 185/3/4 187/3/4
f 185/3/4 186/3/4 187/3/4
f 174/3/4 183/3/4 187/3/4
f 183/3/4 184/3/4 187/3/4
f 175/2/4 151/2/4 188/2/4
f 187/3/4 186/3/4 188/3/4
f 186/3/4 175/3/4 188/3/4
f 176/2/4 187/2/4 189/2/4
f 187/2/4 188/2/4 189/2/4
f 151/1/4 147/1/4 190/1/4
f 189/2/4 188/2/4 190/2/4
f 188/2/4 151/2/4 190/2/4
f 189/1/4 190/1/4 191/1/4
f 191/1/4 190/1/4 192/1/4
f 147/4/4 148/4/4 193/4/4
f 192/1/4 190/1/4 193/1/4
f 190/1/4 147/1/4 193/1/4
f 193/4/4 148/4/4 194/4/4
f 195/1/4 196/1/4 198/1/4
f 196/2/4 197/2/4 199/2/4
f 198/1/4 196/1/4 199/1/4
f 199/2/4 197/2/4 201/2/4
f 200/1/4 201/1/4 202/1/4
f 201/2/4 197/2/4 203/2/4
f 202/1/4 201/1/4 203/1/4
f 203/2/4 197/2/4 204/2/4
f 202/1/4 203/1/4 206/1/4
f 204/1/4 205/1/4 206/1/4
f 203/1/4 204/1/4 206/1/4
f 206/1/4 205/1/4 207/1/4
f 208/1/4 209/1/4 211/1/4
f 209/4/4 210/4/4 212/4/4
f 211/1/4 209/1/4 212/1/4
f 212/4/4 210/4/4 213/4/4
f 208/1/4 211/1/4 214/1/4
f 208/1/4 214/1/4 217/1/4
f 214/1/4 215/1/4 217/1/4
f 215/4/4 216/4/4 218/4/4
f 217/1/4 215/1/4 218/1/4
f 218/4/4 216/4/4 219/4/4
f 222/1/5 221/1/5 220/1/5
f 223/1/5 221/1/5 222/1/5
f 224/1/5 221/1/5 223/1/5
f 225/1/5 221/1/5 224/1/5
f 226/1/5 221/1/5 225/1/5
f 227/1/5 221/1/5 226/1/5
f 228/1/5 221/1/5 227/1/5
f 229/1/5 221/1/5 228/1/5
f 230/1/5 222/1/5 220/1/5
f 230/8/5 223/8/5 222/8/5
f 231/9/5 224/9/5 223/9/5
f 231/8/5 223/8/5 230/8/5
f 232/8/5 225/8/5 224/8/5
f 232/9/5 224/9/5 231/9/5
f 233/9/5 226/9/5 225/9/5
f 233/8/5 225/8/5 232/8/5
f 234/8/5 227/8/5 226/8/5
f 234/9/5 226/9/5 233/9/5
f 235/9/5 228/9/5 227/9/5
f 235/8/5 227/8/5 234/8/5
f 236/8/5 229/8/5 228/8/5
f 236/9/5 228/9/5 235/9/5
f 237/1/5 221/1/5 229/1/5
f 237/8/5 229/8/5 236/8/5
f 238/1/5 230/1/5 220/1/5
f 238/9/5 231/9/5 230/9/5
f 239/8/5 232/8/5 231/8/5
f 239/9/5 231/9/5 238/9/5
f 240/9/5 233/9/5 232/9/5
f 240/8/5 232/8/5 239/8/5
f 241/8/5 234/8/5 233/8/5
f 241/9/5 233/9/5 240/9/5
f 242/9/5 235/9/5 234/9/5
f 242/8/5 234/8/5 241/8/5
f 243/8/5 236/8/5 235/8/5
f 243/9/5 235/9/5 242/9/5
f 244/9/5 237/9/5 236/9/5
f 244/8/5 236/8/5 243/8/5
f 245/1/5 221/1/5 237/1/5
f 245/9/5 237/9/5 244/9/5
f 246/1/5 238/1/5 220/1/5
f 246/8/5 239/8/5 238/8/5
f 247/9/5 240/9/5 239/9/5
f 247/8/5 239/8/5 246/8/5
f 248/8/5 241/8/5 240/8/5
f 248/9/5 240/9/5 247/9/5
f 249/9/5 242/9/5 241/9/5
f 249/8/5 241/8/5 248/8/5
f 250/8/5 243/8/5 242/8/5
f 250/9/5 242/9/5 249/9/5
f 251/9/5 244/9/5 243/9/5
f 251/8/5 243/8/5 250/8/5
f 252/8/5 245/8/5 244/8/5
f 252/9/5 244/9/5 251/9/5
f 253/1/5 221/1/5 245/1/5
f 253/8/5 245/8/5 252/8/5
f 254/9/5 247/9/5 246/9/5
f 254/1/5 246/1/5 220/1/5
f 255/8/5 248/8/5 247/8/5
f 255/9/5 247/9/5 254/9/5
f 256/9/5 249/9/5 248/9/5
f 256/8/5 248/8/5 255/8/5
f 257/8/5 250/8/5 249/8/5
f 257/9/5 249/9/5 256/9/5
f 258/9/5 251/9/5 250/9/5
f 258/8/5 250/8/5 257/8/5
f 259/8/5 252/8/5 251/8/5
f 259/9/5 251/9/5 258/9/5
f 260/9/5 253/9/5 252/9/5
f 260/8/5 252/8/5 259/8/5
f 261/1/5 221/1/5 253/1/5
f 261/9/5 253/9/5 260/9/5
f 262/1/5 254/1/5 220/1/5
f 262/8/5 255/8/5 254/8/5
f 263/9/5 256/9/5 255/9/5
f 263/8/5 255/8/5 262/8/5
f 264/8/5 257/8/5 256/8/5
f 264/9/5 256/9/5 263/9/5
f 265/9/5 258/9/5 257/9/5
f 265/8/5 257/8/5 264/8/5
f 266/8/5 259/8/5 258/8/5
f 266/9/5 258/9/5 265/9/5
f 267/9/5 260/9/5 259/9/5
f 267/8/5 259/8/5 266/8/5
f 268/8/5 261/8/5 260/8/5
f 268/9/5 260/9/5 267/9/5
f 269/1/5 221/1/5 261/1/5
f 269/8/5 261/8/5 268/8/5
f 270/1/5 262/1/5 220/1/5
f 270/9/5 263/9/5 262/9/5
f 271/8/5 264/8/5 263/8/5
f 271/9/5 263/9/5 270/9/5
f 272/8/5 264/8/5 271/8/5
f 273/9/5 265/9/5 264/9/5
f 273/8/5 264/8/5 272/8/5
f 274/8/5 266/8/5 265/8/5
f 274/9/5 265/9/5 273/9/5
f 275/9/5 267/9/5 266/9/5
f 275/8/5 266/8/5 274/8/5
f 276/8/5 268/8/5 267/8/5
f 276/9/5 267/9/5 275/9/5
f 277/9/5 269/9/5 268/9/5
f 277/8/5 268/8/5 276/8/5
f 278/1/5 221/1/5 269/1/5
f 278/9/5 269/9/5 277/9/5
f 279/1/5 270/1/5 220/1/5
f 279/1/5 272/1/5 271/1/5
f 279/1/5 271/1/5 270/1/5
f 280/1/5 272/1/5 279/1/5
f 281/8/5 275/8/5 274/8/5
f 281/1/5 272/1/5 280/1/5
f 281/8/5 273/8/5 272/8/5
f 281/8/5 277/8/5 276/8/5
f 281/8/5 278/8/5 277/8/5
f 281/8/5 276/8/5 275/8/5
f 281/8/5 274/8/5 273/8/5
f 282/8/5 278/8/5 281/8/5
f 283/8/5 280/8/5 279/8/5
f 283/5/5 281/5/5 280/5/5
f 283/5/5 282/5/5 281/5/5
f 284/8/5 278/8/5 282/8/5
f 284/5/5 282/5/5 283/5/5
f 285/8/5 283/8/5 279/8/5
f 285/1/5 279/1/5 220/1/5
f 286/6/5 284/6/5 283/6/5
f 286/8/5 283/8/5 285/8/5
f 287/8/5 278/8/5 284/8/5
f 287/6/5 284/6/5 286/6/5
f 288/1/5 221/1/5 278/1/5
f 288/8/5 278/8/5 287/8/5
f 289/1/5 286/1/5 285/1/5
f 289/1/5 285/1/5 220/1/5
f 289/1/5 288/1/5 287/1/5
f 289/1/5 287/1/5 286/1/5
f 290/1/5 221/1/5 288/1/5
f 290/1/5 288/1/5 289/1/5
f 293/2/5 292/2/5 291/2/5
f 294/2/5 292/2/5 293/2/5
f 295/2/5 294/2/5 293/2/5
f 296/2/5 294/2/5 295/2/5
f 299/1/5 298/1/5 297/1/5
f 300/1/5 298/1/5 299/1/5
f 301/8/6 302/8/6 309/8/6
f 302/9/6 303/9/6 310/9/6
f 309/8/6 302/8/6 310/8/6
f 303/8/6 304/8/6 311/8/6
f 310/9/6 303/9/6 311/9/6
f 304/9/6 305/9/6 312/9/6
f 311/8/6 304/8/6 312/8/6
f 305/8/6 306/8/6 313/8/6
f 312/9/6 305/9/6 313/9/6
f 306/9/6 307/9/6 314/9/6
f 313/8/6 306/8/6 314/8/6
f 307/8/6 308/8/6 315/8/6
f 314/9/6 307/9/6 315/9/6
f 315/8/6 308/8/6 316/8/6
f 309/9/6 310/9/6 317/9/6
f 310/8/6 311/8/6 318/8/6
f 317/9/6 310/9/6 318/9/6
f 311/9/6 312/9/6 319/9/6
f 318/8/6 311/8/6 319/8/6
f 312/8/6 313/8/6 320/8/6
f 319/9/6 312/9/6 320/9/6
f 313/9/6 314/9/6 321/9/6
f 320/8/6 313/8/6 321/8/6
f 314/8/6 315/8/6 322/8/6
f 321/9/6 314/9/6 322/9/6
f 315/9/6 316/9/6 323/9/6
f 322/8/6 315/8/6 323/8/6
f 323/9/6 316/9/6 324/9/6
f 317/8/6 318/8/6 325/8/6
f 318/9/6 319/9/6 326/9/6
f 325/8/6 318/8/6 326/8/6
f 319/8/6 320/8/6 327/8/6
f 326/9/6 319/9/6 327/9/6
f 320/9/6 321/9/6 328/9/6
f 327/8/6 320/8/6 328/8/6
f 321/8/6 322/8/6 329/8/6
f 328/9/6 321/9/6 329/9/6
f 322/9/6 323/9/6 330/9/6
f 329/8/6 322/8/6 330/8/6
f 323/8/6 324/8/6 331/8/6
f 330/9/6 323/9/6 331/9/6
f 331/8/6 324/8/6 332/8/6
f 325/9/6 326/9/6 333/9/6
f 326/8/6 327/8/6 334/8/6
f 333/9/6 326/9/6 334/9/6
f 327/9/6 328/9/6 335/9/6
f 334/8/6 327/8/6 335/8/6
f 328/8/6 329/8/6 336/8/6
f 335/9/6 328/9/6 336/9/6
f 329/9/6 330/9/6 337/9/6
f 336/8/6 329/8/6 337/8/6
f 330/8/6 331/8/6 338/8/6
f 337/9/6 330/9/6 338/9/6
f 331/9/6 332/9/6 339/9/6
f 338/8/6 331/8/6 339/8/6
f 339/9/6 332/9/6 340/9/6
f 333/8/6 334/8/6 341/8/6
f 334/9/6 335/9/6 342/9/6
f 341/8/6 334/8/6 342/8/6
f 335/8/6 336/8/6 343/8/6
f 342/9/6 335/9/6 343/9/6
f 336/9/6 337/9/6 344/9/6
f 343/8/6 336/8/6 344/8/6
f 337/8/6 338/8/6 345/8/6
f 344/9/6 337/9/6 345/9/6
f 338/9/6 339/9/6 346/9/6
f 345/8/6 338/8/6 346/8/6
f 339/8/6 340/8/6 347/8/6
f 346/9/6 339/9/6 347/9/6
f 347/8/6 340/8/6 348/8/6
f 341/9/6 342/9/6 349/9/6
f 342/8/6 343/8/6 350/8/6
f 349/9/6 342/9/6 350/9/6
f 343/9/6 344/9/6 351/9/6
f 350/8/6 343/8/6 351/8/6
f 344/8/6 345/8/6 352/8/6
f 351/9/6 344/9/6 352/9/6
f 345/9/6 346/9/6 353/9/6
f 352/8/6 345/8/6 353/8/6
f 346/8/6 347/8/6 354/8/6
f 353/9/6 346/9/6 354/9/6
f 347/9/6 348/9/6 355/9/6
f 354/8/6 347/8/6 355/8/6
f 355/9/6 348/9/6 356/9/6
f 354/8/6 355/8/6 357/8/6
f 357/8/6 355/8/6 358/8/6
f 359/5/6 360/5/6 364/5/6
f 360/5/6 361/5/6 364/5/6
f 361/5/6 362/5/6 364/5/6
f 362/1/6 363/1/6 365/1/6
f 364/5/6 362/5/6 365/5/6
f 365/1/6 363/1/6 366/1/6
f 367/2/6 368/2/6 369/2/6
f 369/2/6 368/2/6 370/2/6
f 371/1/6 372/1/6 373/1/6
f 373/1/6 372/1/6 374/1/6
f 375/4/6 376/4/6 377/4/6
f 377/4/6 376/4/6 378/4/6
f 375/4/6 377/4/6 379/4/6
f 379/4/6 377/4/6 380/4/6
f 378/4/6 376/4/6 381/4/6
f 381/4/6 376/4/6 382/4/6
