# MagicaVoxel @ Ephtracy

# material
mtllib base_char.mtl
usemtl palette

# normals
vn -1 0 0
vn 1 0 0
vn 0 0 1
vn 0 0 -1
vn 0 -1 0
vn 0 1 0

# texcoords
vt 0.306641 0.5
vt 0.439453 0.5
vt 0.501953 0.5
vt 0.966797 0.5
vt 0.994141 0.5

# verts
v -2.5 6 0.5
v -2.5 6 -0.5
v -2.5 7 0.5
v -2.5 7 -0.5
v -2.5 13 0.5
v -2.5 13 -0.5
v -1.5 0 1.5
v -1.5 0 -0.5
v -1.5 1 1.5
v -1.5 1 0.5
v -1.5 1 -0.5
v -1.5 6 0.5
v -1.5 6 -0.5
v -1.5 7 1.5
v -1.5 7 0.5
v -1.5 7 -0.5
v -1.5 7 -1.5
v -1.5 13 1.5
v -1.5 13 0.5
v -1.5 13 -0.5
v -1.5 13 -1.5
v -1.5 14 1.5
v -1.5 14 -0.5
v -1.5 14 -1.5
v -1.5 15 0.5
v -1.5 15 -0.5
v -1.5 16 1.5
v -1.5 16 0.5
v -1.5 17 1.5
v -1.5 17 -1.5
v -0.5 13 0.5
v -0.5 13 -0.5
v -0.5 14 0.5
v -0.5 14 -0.5
v 0.5 0 1.5
v 0.5 0 -0.5
v 0.5 1 1.5
v 0.5 1 0.5
v 0.5 1 -0.5
v 0.5 7 0.5
v 0.5 7 -0.5
v -0.5 0 1.5
v -0.5 0 -0.5
v -0.5 1 1.5
v -0.5 1 0.5
v -0.5 1 -0.5
v -0.5 7 0.5
v -0.5 7 -0.5
v 0.5 13 0.5
v 0.5 13 -0.5
v 0.5 14 0.5
v 0.5 14 -0.5
v 1.5 0 1.5
v 1.5 0 -0.5
v 1.5 1 1.5
v 1.5 1 0.5
v 1.5 1 -0.5
v 1.5 6 0.5
v 1.5 6 -0.5
v 1.5 7 1.5
v 1.5 7 0.5
v 1.5 7 -0.5
v 1.5 7 -1.5
v 1.5 13 1.5
v 1.5 13 0.5
v 1.5 13 -0.5
v 1.5 13 -1.5
v 1.5 14 1.5
v 1.5 14 -0.5
v 1.5 14 -1.5
v 1.5 15 0.5
v 1.5 15 -0.5
v 1.5 16 1.5
v 1.5 16 0.5
v 1.5 17 1.5
v 1.5 17 -1.5
v 2.5 6 0.5
v 2.5 6 -0.5
v 2.5 7 0.5
v 2.5 7 -0.5
v 2.5 13 0.5
v 2.5 13 -0.5
v -1.5 0 1.5
v -1.5 1 1.5
v -1.5 7 1.5
v -1.5 13 1.5
v -1.5 14 1.5
v -1.5 16 1.5
v -1.5 17 1.5
v -0.5 0 1.5
v -0.5 1 1.5
v 0.5 0 1.5
v 0.5 1 1.5
v 1.5 0 1.5
v 1.5 1 1.5
v 1.5 7 1.5
v 1.5 13 1.5
v 1.5 14 1.5
v 1.5 16 1.5
v 1.5 17 1.5
v -2.5 6 0.5
v -2.5 7 0.5
v -2.5 13 0.5
v -1.5 1 0.5
v -1.5 6 0.5
v -1.5 7 0.5
v -1.5 13 0.5
v -0.5 1 0.5
v -0.5 7 0.5
v -0.5 13 0.5
v -0.5 14 0.5
v 0.5 1 0.5
v 0.5 7 0.5
v 0.5 13 0.5
v 0.5 14 0.5
v 1.5 1 0.5
v 1.5 6 0.5
v 1.5 7 0.5
v 1.5 13 0.5
v 2.5 6 0.5
v 2.5 7 0.5
v 2.5 13 0.5
v -2.5 6 -0.5
v -2.5 7 -0.5
v -2.5 13 -0.5
v -1.5 0 -0.5
v -1.5 1 -0.5
v -1.5 6 -0.5
v -1.5 7 -0.5
v -1.5 13 -0.5
v -0.5 0 -0.5
v -0.5 1 -0.5
v -0.5 7 -0.5
v -0.5 13 -0.5
v -0.5 14 -0.5
v 0.5 0 -0.5
v 0.5 1 -0.5
v 0.5 7 -0.5
v 0.5 13 -0.5
v 0.5 14 -0.5
v 1.5 0 -0.5
v 1.5 1 -0.5
v 1.5 6 -0.5
v 1.5 7 -0.5
v 1.5 13 -0.5
v 2.5 6 -0.5
v 2.5 7 -0.5
v 2.5 13 -0.5
v -1.5 7 -1.5
v -1.5 13 -1.5
v -1.5 14 -1.5
v -1.5 17 -1.5
v 1.5 7 -1.5
v 1.5 13 -1.5
v 1.5 14 -1.5
v 1.5 17 -1.5
v -1.5 0 1.5
v -0.5 0 1.5
v 0.5 0 1.5
v 1.5 0 1.5
v -1.5 0 -0.5
v -0.5 0 -0.5
v 0.5 0 -0.5
v 1.5 0 -0.5
v -2.5 6 0.5
v -1.5 6 0.5
v 1.5 6 0.5
v 2.5 6 0.5
v -2.5 6 -0.5
v -1.5 6 -0.5
v 1.5 6 -0.5
v 2.5 6 -0.5
v -1.5 7 1.5
v 1.5 7 1.5
v -1.5 7 0.5
v -0.5 7 0.5
v 0.5 7 0.5
v 1.5 7 0.5
v -1.5 7 -0.5
v -0.5 7 -0.5
v 0.5 7 -0.5
v 1.5 7 -0.5
v -1.5 7 -1.5
v 1.5 7 -1.5
v -1.5 14 1.5
v 1.5 14 1.5
v -0.5 14 0.5
v 0.5 14 0.5
v -1.5 14 -0.5
v -0.5 14 -0.5
v 0.5 14 -0.5
v 1.5 14 -0.5
v -1.5 14 -1.5
v 1.5 14 -1.5
v -1.5 1 1.5
v -0.5 1 1.5
v 0.5 1 1.5
v 1.5 1 1.5
v -1.5 1 0.5
v -0.5 1 0.5
v 0.5 1 0.5
v 1.5 1 0.5
v -1.5 13 1.5
v 1.5 13 1.5
v -2.5 13 0.5
v -1.5 13 0.5
v -0.5 13 0.5
v 0.5 13 0.5
v 1.5 13 0.5
v 2.5 13 0.5
v -2.5 13 -0.5
v -1.5 13 -0.5
v -0.5 13 -0.5
v 0.5 13 -0.5
v 1.5 13 -0.5
v 2.5 13 -0.5
v -1.5 13 -1.5
v 1.5 13 -1.5
v -1.5 17 1.5
v 1.5 17 1.5
v -1.5 17 -1.5
v 1.5 17 -1.5

# faces
f 3/3/1 2/3/1 1/3/1
f 4/3/1 2/3/1 3/3/1
f 5/1/1 4/1/1 3/1/1
f 6/1/1 4/1/1 5/1/1
f 9/4/1 8/4/1 7/4/1
f 10/4/1 8/4/1 9/4/1
f 11/4/1 8/4/1 10/4/1
f 12/2/1 11/2/1 10/2/1
f 13/2/1 11/2/1 12/2/1
f 18/1/1 15/1/1 14/1/1
f 19/1/1 15/1/1 18/1/1
f 20/1/1 17/1/1 16/1/1
f 21/1/1 17/1/1 20/1/1
f 25/3/1 23/3/1 22/3/1
f 26/5/1 24/5/1 23/5/1
f 26/3/1 23/3/1 25/3/1
f 27/3/1 25/3/1 22/3/1
f 28/5/1 26/5/1 25/5/1
f 28/3/1 25/3/1 27/3/1
f 29/5/1 28/5/1 27/5/1
f 30/5/1 24/5/1 26/5/1
f 30/5/1 28/5/1 29/5/1
f 30/5/1 26/5/1 28/5/1
f 33/3/1 32/3/1 31/3/1
f 34/3/1 32/3/1 33/3/1
f 37/4/1 36/4/1 35/4/1
f 38/4/1 36/4/1 37/4/1
f 39/4/1 36/4/1 38/4/1
f 40/2/1 39/2/1 38/2/1
f 41/2/1 39/2/1 40/2/1
f 42/4/2 43/4/2 44/4/2
f 44/4/2 43/4/2 45/4/2
f 45/4/2 43/4/2 46/4/2
f 45/2/2 46/2/2 47/2/2
f 47/2/2 46/2/2 48/2/2
f 49/3/2 50/3/2 51/3/2
f 51/3/2 50/3/2 52/3/2
f 53/4/2 54/4/2 55/4/2
f 55/4/2 54/4/2 56/4/2
f 56/4/2 54/4/2 57/4/2
f 56/2/2 57/2/2 58/2/2
f 58/2/2 57/2/2 59/2/2
f 60/1/2 61/1/2 64/1/2
f 64/1/2 61/1/2 65/1/2
f 62/1/2 63/1/2 66/1/2
f 66/1/2 63/1/2 67/1/2
f 68/3/2 69/3/2 71/3/2
f 69/5/2 70/5/2 72/5/2
f 71/3/2 69/3/2 72/3/2
f 68/3/2 71/3/2 73/3/2
f 71/5/2 72/5/2 74/5/2
f 73/3/2 71/3/2 74/3/2
f 73/5/2 74/5/2 75/5/2
f 72/5/2 70/5/2 76/5/2
f 75/5/2 74/5/2 76/5/2
f 74/5/2 72/5/2 76/5/2
f 77/3/2 78/3/2 79/3/2
f 79/3/2 78/3/2 80/3/2
f 79/1/2 80/1/2 81/1/2
f 81/1/2 80/1/2 82/1/2
f 90/4/3 84/4/3 83/4/3
f 91/4/3 84/4/3 90/4/3
f 94/4/3 93/4/3 92/4/3
f 95/4/3 93/4/3 94/4/3
f 96/1/3 86/1/3 85/1/3
f 97/1/3 86/1/3 96/1/3
f 98/3/3 88/3/3 87/3/3
f 99/5/3 89/5/3 88/5/3
f 99/3/3 88/3/3 98/3/3
f 100/5/3 89/5/3 99/5/3
f 105/3/3 102/3/3 101/3/3
f 106/1/3 103/1/3 102/1/3
f 106/3/3 102/3/3 105/3/3
f 107/1/3 103/1/3 106/1/3
f 108/2/3 105/2/3 104/2/3
f 108/2/3 106/2/3 105/2/3
f 109/2/3 106/2/3 108/2/3
f 114/3/3 111/3/3 110/3/3
f 115/3/3 111/3/3 114/3/3
f 116/2/3 113/2/3 112/2/3
f 117/2/3 113/2/3 116/2/3
f 118/2/3 113/2/3 117/2/3
f 120/3/3 118/3/3 117/3/3
f 121/1/3 119/1/3 118/1/3
f 121/3/3 118/3/3 120/3/3
f 122/1/3 119/1/3 121/1/3
f 123/3/4 124/3/4 128/3/4
f 124/1/4 125/1/4 129/1/4
f 128/3/4 124/3/4 129/3/4
f 129/1/4 125/1/4 130/1/4
f 126/4/4 127/4/4 131/4/4
f 127/2/4 128/2/4 132/2/4
f 131/4/4 127/4/4 132/4/4
f 128/2/4 129/2/4 132/2/4
f 132/2/4 129/2/4 133/2/4
f 134/3/4 135/3/4 139/3/4
f 139/3/4 135/3/4 140/3/4
f 136/4/4 137/4/4 141/4/4
f 137/2/4 138/2/4 142/2/4
f 141/4/4 137/4/4 142/4/4
f 142/2/4 138/2/4 143/2/4
f 143/2/4 138/2/4 144/2/4
f 143/3/4 144/3/4 146/3/4
f 144/1/4 145/1/4 147/1/4
f 146/3/4 144/3/4 147/3/4
f 147/1/4 145/1/4 148/1/4
f 149/1/4 150/1/4 153/1/4
f 153/1/4 150/1/4 154/1/4
f 151/5/4 152/5/4 155/5/4
f 155/5/4 152/5/4 156/5/4
f 161/4/5 158/4/5 157/4/5
f 162/4/5 158/4/5 161/4/5
f 163/4/5 160/4/5 159/4/5
f 164/4/5 160/4/5 163/4/5
f 169/3/5 166/3/5 165/3/5
f 170/3/5 166/3/5 169/3/5
f 171/3/5 168/3/5 167/3/5
f 172/3/5 168/3/5 171/3/5
f 175/1/5 174/1/5 173/1/5
f 176/1/5 174/1/5 175/1/5
f 177/1/5 174/1/5 176/1/5
f 178/1/5 174/1/5 177/1/5
f 180/1/5 177/1/5 176/1/5
f 181/1/5 177/1/5 180/1/5
f 183/1/5 180/1/5 179/1/5
f 183/1/5 182/1/5 181/1/5
f 183/1/5 181/1/5 180/1/5
f 184/1/5 182/1/5 183/1/5
f 187/3/5 186/3/5 185/3/5
f 188/3/5 186/3/5 187/3/5
f 189/3/5 187/3/5 185/3/5
f 190/3/5 187/3/5 189/3/5
f 191/3/5 186/3/5 188/3/5
f 192/3/5 186/3/5 191/3/5
f 193/5/5 190/5/5 189/5/5
f 193/5/5 191/5/5 190/5/5
f 193/5/5 192/5/5 191/5/5
f 194/5/5 192/5/5 193/5/5
f 195/4/6 196/4/6 199/4/6
f 199/4/6 196/4/6 200/4/6
f 197/4/6 198/4/6 201/4/6
f 201/4/6 198/4/6 202/4/6
f 203/1/6 204/1/6 206/1/6
f 206/1/6 204/1/6 207/1/6
f 207/1/6 204/1/6 208/1/6
f 208/1/6 204/1/6 209/1/6
f 205/1/6 206/1/6 211/1/6
f 206/1/6 207/1/6 211/1/6
f 211/1/6 207/1/6 212/1/6
f 212/1/6 207/1/6 213/1/6
f 209/1/6 210/1/6 214/1/6
f 208/1/6 209/1/6 214/1/6
f 214/1/6 210/1/6 215/1/6
f 215/1/6 210/1/6 216/1/6
f 212/1/6 213/1/6 217/1/6
f 214/1/6 215/1/6 217/1/6
f 213/1/6 214/1/6 217/1/6
f 217/1/6 215/1/6 218/1/6
f 219/5/6 220/5/6 221/5/6
f 221/5/6 220/5/6 222/5/6
