# MagicaVoxel @ Ephtracy

# material
mtllib burguer.mtl
usemtl palette

# normals
vn -1 0 0
vn 1 0 0
vn 0 0 1
vn 0 0 -1
vn 0 -1 0
vn 0 1 0

# texcoords
vt 0.298828 0.5
vt 0.447266 0.5
vt 0.849609 0.5
vt 0.943359 0.5

# verts
v -3 0 3
v -3 0 -3
v -3 1 3
v -3 1 -3
v -3 2 3
v -3 2 -3
v -3 3 3
v -3 3 -3
v 3 0 3
v 3 0 -3
v 3 1 3
v 3 1 -3
v 3 2 3
v 3 2 -3
v 3 3 3
v 3 3 -3
v -3 0 3
v -3 1 3
v -3 2 3
v -3 3 3
v 3 0 3
v 3 1 3
v 3 2 3
v 3 3 3
v -3 0 -3
v -3 1 -3
v -3 2 -3
v -3 3 -3
v 3 0 -3
v 3 1 -3
v 3 2 -3
v 3 3 -3
v -3 0 3
v 3 0 3
v -3 0 -3
v 3 0 -3
v -3 3 3
v 3 3 3
v -3 3 -3
v 3 3 -3

# faces
f 3/3/1 2/3/1 1/3/1
f 4/3/1 2/3/1 3/3/1
f 5/1/1 4/1/1 3/1/1
f 6/1/1 4/1/1 5/1/1
f 7/3/1 6/3/1 5/3/1
f 8/3/1 6/3/1 7/3/1
f 9/3/2 10/3/2 11/3/2
f 11/3/2 10/3/2 12/3/2
f 11/1/2 12/1/2 13/1/2
f 13/1/2 12/1/2 14/1/2
f 13/3/2 14/3/2 15/3/2
f 15/3/2 14/3/2 16/3/2
f 21/3/3 18/3/3 17/3/3
f 22/1/3 19/1/3 18/1/3
f 22/3/3 18/3/3 21/3/3
f 23/3/3 20/3/3 19/3/3
f 23/1/3 19/1/3 22/1/3
f 24/3/3 20/3/3 23/3/3
f 25/3/4 26/3/4 29/3/4
f 26/1/4 27/1/4 30/1/4
f 29/3/4 26/3/4 30/3/4
f 27/3/4 28/3/4 31/3/4
f 30/1/4 27/1/4 31/1/4
f 31/3/4 28/3/4 32/3/4
f 35/3/5 34/3/5 33/3/5
f 36/3/5 34/3/5 35/3/5
f 37/3/6 38/3/6 39/3/6
f 39/3/6 38/3/6 40/3/6
