# MagicaVoxel @ Ephtracy

# material
mtllib fries.mtl
usemtl palette

# normals
vn -1 0 0
vn 1 0 0
vn 0 0 1
vn 0 0 -1
vn 0 -1 0
vn 0 1 0

# texcoords
vt 0.845703 0.5
vt 0.939453 0.5

# verts
v -1 0 2
v -1 0 -2
v -1 4 2
v -1 4 1
v -1 4 -0
v -1 4 -1
v -1 4 -2
v -1 5 1
v -1 5 -0
v -1 5 -1
v -1 5 -2
v 0 4 2
v 0 4 1
v 0 4 -0
v 0 4 -1
v 0 5 1
v 0 5 -0
v 0 5 -1
v 0 6 2
v 0 6 1
v 0 6 -0
v 0 6 -1
v 0 4 1
v 0 4 -0
v 0 5 1
v 0 5 -0
v 1 0 2
v 1 0 -2
v 1 4 2
v 1 4 1
v 1 4 -0
v 1 4 -2
v 1 5 -1
v 1 5 -2
v 1 6 2
v 1 6 1
v 1 6 -0
v 1 6 -1
v -1 0 2
v -1 4 2
v 0 4 2
v 0 6 2
v 1 0 2
v 1 4 2
v 1 6 2
v -1 4 1
v -1 5 1
v 0 4 1
v 0 5 1
v 0 4 -0
v 0 5 -0
v 0 6 -0
v 1 4 -0
v 1 6 -0
v -1 4 -1
v -1 5 -1
v 0 4 -1
v 0 5 -1
v 0 4 1
v 0 5 1
v 0 6 1
v 1 4 1
v 1 6 1
v -1 4 -0
v -1 5 -0
v 0 4 -0
v 0 5 -0
v 0 5 -1
v 0 6 -1
v 1 5 -1
v 1 6 -1
v -1 0 -2
v -1 4 -2
v -1 5 -2
v 1 0 -2
v 1 4 -2
v 1 5 -2
v -1 0 2
v 1 0 2
v -1 0 -2
v 1 0 -2
v -1 4 2
v 0 4 2
v -1 4 1
v 0 4 1
v 1 4 1
v -1 4 -0
v 0 4 -0
v 1 4 -0
v -1 4 -1
v 0 4 -1
v -1 5 1
v 0 5 1
v -1 5 -0
v 0 5 -0
v -1 5 -1
v 0 5 -1
v 1 5 -1
v -1 5 -2
v 1 5 -2
v 0 6 2
v 1 6 2
v 0 6 1
v 1 6 1
v 0 6 -0
v 1 6 -0
v 0 6 -1
v 1 6 -1

# faces
f 3/2/1 2/2/1 1/2/1
f 4/2/1 2/2/1 3/2/1
f 5/2/1 2/2/1 4/2/1
f 6/2/1 2/2/1 5/2/1
f 7/2/1 2/2/1 6/2/1
f 8/1/1 5/1/1 4/1/1
f 9/1/1 5/1/1 8/1/1
f 10/1/1 7/1/1 6/1/1
f 11/1/1 7/1/1 10/1/1
f 16/1/1 13/1/1 12/1/1
f 17/1/1 15/1/1 14/1/1
f 18/1/1 15/1/1 17/1/1
f 19/1/1 16/1/1 12/1/1
f 20/1/1 16/1/1 19/1/1
f 21/1/1 18/1/1 17/1/1
f 22/1/1 18/1/1 21/1/1
f 23/1/2 24/1/2 25/1/2
f 25/1/2 24/1/2 26/1/2
f 27/2/2 28/2/2 29/2/2
f 29/2/2 28/2/2 30/2/2
f 30/2/2 28/2/2 31/2/2
f 31/2/2 28/2/2 32/2/2
f 31/1/2 32/1/2 33/1/2
f 33/1/2 32/1/2 34/1/2
f 29/1/2 30/1/2 35/1/2
f 35/1/2 30/1/2 36/1/2
f 31/1/2 33/1/2 37/1/2
f 37/1/2 33/1/2 38/1/2
f 41/2/3 40/2/3 39/2/3
f 43/2/3 41/2/3 39/2/3
f 44/1/3 42/1/3 41/1/3
f 44/2/3 41/2/3 43/2/3
f 45/1/3 42/1/3 44/1/3
f 48/1/3 47/1/3 46/1/3
f 49/1/3 47/1/3 48/1/3
f 53/1/3 51/1/3 50/1/3
f 53/1/3 52/1/3 51/1/3
f 54/1/3 52/1/3 53/1/3
f 57/1/3 56/1/3 55/1/3
f 58/1/3 56/1/3 57/1/3
f 59/1/4 60/1/4 62/1/4
f 60/1/4 61/1/4 62/1/4
f 62/1/4 61/1/4 63/1/4
f 64/1/4 65/1/4 66/1/4
f 66/1/4 65/1/4 67/1/4
f 68/1/4 69/1/4 70/1/4
f 70/1/4 69/1/4 71/1/4
f 72/2/4 73/2/4 75/2/4
f 73/1/4 74/1/4 76/1/4
f 75/2/4 73/2/4 76/2/4
f 76/1/4 74/1/4 77/1/4
f 80/2/5 79/2/5 78/2/5
f 81/2/5 79/2/5 80/2/5
f 82/2/6 83/2/6 84/2/6
f 84/2/6 83/2/6 85/2/6
f 85/2/6 86/2/6 88/2/6
f 88/2/6 86/2/6 89/2/6
f 87/2/6 88/2/6 90/2/6
f 90/2/6 88/2/6 91/2/6
f 92/1/6 93/1/6 94/1/6
f 94/1/6 93/1/6 95/1/6
f 96/1/6 97/1/6 99/1/6
f 97/1/6 98/1/6 99/1/6
f 99/1/6 98/1/6 100/1/6
f 101/1/6 102/1/6 103/1/6
f 103/1/6 102/1/6 104/1/6
f 105/1/6 106/1/6 107/1/6
f 107/1/6 106/1/6 108/1/6
